<?xml version="1.0" encoding="utf-8"?>
<!-- Generator: Adobe Illustrator 24.0.2, SVG Export Plug-In . SVG Version: 6.00 Build 0)  -->
<svg version="1.1" id="Ebene_1" xmlns="http://www.w3.org/2000/svg" xmlns:xlink="http://www.w3.org/1999/xlink" x="0px" y="0px"
	 viewBox="0 0 297.64 257.33" style="enable-background:new 0 0 297.64 257.33;" xml:space="preserve">
<style type="text/css">
	.st0{fill:#B6A77C;}
	.st1{fill:none;}
	.st2{fill:#878787;}
</style>
<g>
	<path class="st0" d="M150.68,107.33c1.95-3.42,3.82-6.85,5.42-10.34c1.56-3.5,2.87-7.12,3.38-10.82c0.58-3.63-0.07-7.35-2.42-10.14
		c-2.34-2.79-5.93-4.56-9.66-5.75c3.89,0.27,8.02,1.44,11.05,4.46c1.52,1.47,2.59,3.43,3.15,5.49c0.54,2.07,0.57,4.23,0.28,6.28
		c-0.62,4.06-2.13,7.87-4.1,11.33C155.83,101.33,153.39,104.47,150.68,107.33z"/>
	<path class="st1" d="M49.57,116.34c-2.98,3.33-5.81,6.81-8.19,10.54c-1.17,1.86-2.26,3.8-2.94,5.79c-0.7,1.97-0.86,4.15,0.51,5.07
		c1.39,0.99,3.75,1.06,5.79,0.85c2.09-0.24,4.09-0.97,5.9-2.08c3.64-2.22,6.43-5.74,8.71-9.48c2.27-3.78,4.09-7.86,5.69-12.03
		c2.07-5.37,3.74-10.88,5.39-16.43c-3.78,2.79-7.5,5.66-11.22,8.54C55.67,109.76,52.59,113.05,49.57,116.34z"/>
	<path class="st1" d="M49.59,116.34c-2.98,3.33-5.81,6.81-8.19,10.54c-1.17,1.86-2.26,3.8-2.94,5.79c-0.7,1.97-0.86,4.15,0.51,5.07
		c1.39,0.99,3.75,1.06,5.79,0.85c2.09-0.24,4.09-0.97,5.9-2.08c3.64-2.22,6.43-5.74,8.71-9.48c2.27-3.78,4.09-7.86,5.69-12.03
		c2.07-5.37,3.74-10.88,5.39-16.43c-3.78,2.79-7.5,5.66-11.22,8.54C55.68,109.76,52.61,113.04,49.59,116.34z"/>
	<path class="st0" d="M183.03,140.12c-7.91,0.07-15.82,1.1-23.49,3.11c-7.66,2.05-15.04,5.11-21.94,8.99
		c-3.12,1.76-6.16,3.65-9.12,5.67c1.12-3.36,2.35-6.67,3.79-9.91c1.58-3.55,3.34-7.03,5.36-10.33c2.01-3.27,4.3-6.54,6.93-9.12l0,0
		c0.03-0.03,0.05-0.05,0.08-0.07c0.42-0.42,0.43-1.09,0.02-1.52c-0.41-0.43-1.1-0.44-1.52-0.02c-0.03,0.03-0.05,0.05-0.07,0.08l0,0
		c-7.19,7.26-15.23,13.91-23.23,20.44c-8.05,6.51-16.28,12.81-24.59,19c-4.19,3.05-8.3,6.22-12.58,9.06
		c-4.29,2.79-8.81,5.4-13.69,6.55c-2.42,0.55-4.96,0.65-7.21-0.18c-2.25-0.8-4.06-2.58-5.24-4.72c-2.39-4.34-2.38-9.71-1.86-14.73
		c1.21-10.2,4.48-20.13,9.12-29.32c4.64-9.21,10.49-17.8,17.14-25.7c6.68-7.88,14.21-15.07,22.52-21.25
		c8.31-6.16,17.35-11.51,27.21-14.75c-9.86,3.24-16.23,5.19-27.49,13.54c-8.35,6.19-16.14,13.98-22.99,21.81
		c-6.85,7.83-12.84,16.45-17.56,25.76c-4.75,9.28-8.13,19.33-9.42,29.74c-0.55,5.16-0.66,10.75,1.96,15.65
		c1.29,2.39,3.38,4.5,6.05,5.47c2.65,0.99,5.52,0.86,8.12,0.28c5.26-1.22,9.89-3.9,14.28-6.71c4.38-2.87,8.51-6.01,12.72-9.05
		c8.36-6.15,16.64-12.42,24.76-18.91c4.87-3.94,9.7-7.9,14.42-12.04c-1.99,3.26-3.73,6.65-5.3,10.11
		c-1.92,4.27-3.51,8.69-4.92,13.15c-2.43,1.79-4.8,3.66-7.05,5.69c-5.93,5.3-10.53,10.65-15.33,16.88
		c-4.74,6.16-9.56,11.75-14.28,18.77c-2.21,3.28-4.98,7.36-7.11,10.72c-2.1,3.37-4.1,6.86-5.32,10.79c-0.56,1.96-1.01,4.11-0.4,6.36
		c0.31,1.11,0.98,2.19,1.91,2.92c0.91,0.76,1.98,1.18,3.03,1.45c4.18,0.94,8.39,0.25,12.19-1.42c3.76-1.73,6.92-4.48,9.55-7.52
		c2.61-3.08,4.78-6.48,6.68-9.98c3.78-7.03,6.58-14.48,9.06-21.98c2.47-7.51,4.59-15.11,6.68-22.69c0.88-3.34,1.82-6.64,2.85-9.9
		c3.41-2.45,6.96-4.71,10.61-6.79c6.79-3.87,14.04-6.92,21.57-8.98c7.54-2.03,15.35-3.05,23.17-3.21
		c31.45-0.3,62.94-0.74,94.39-1.56C245.98,140.16,214.52,140.23,183.03,140.12z M122.52,169.53c-4.21,15.11-8.12,30.46-15.33,44.28
		c-3.63,6.75-8.31,13.41-15.16,16.67c-3.35,1.53-7.31,2.15-10.84,1.36c-1.74-0.41-3.11-1.4-3.54-2.99
		c-0.46-1.58-0.14-3.48,0.37-5.26c1.1-3.61,3.01-7.04,5.05-10.34c2.07-3.3,4.81-7.33,6.96-10.6c4.65-7.09,9.6-12.52,14.2-18.87
		c4.62-6.35,9.23-11.49,15.02-16.72c1.67-1.53,3.42-2.97,5.21-4.36C123.79,164.97,123.14,167.25,122.52,169.53z"/>
	<path class="st2" d="M104.51,77.93c-8.45,3.16-16.63,7.23-24.23,12.13c-2.04,1.3-4.05,2.64-6.04,4.01c0.41-1.35,0.82-2.7,1.25-4.04
		c1.4-4.22,3.1-8.34,5.21-12.23c2.11-3.83,4.66-7.65,7.68-10.49l0,0c0.03-0.03,0.06-0.05,0.09-0.08l0.01-0.01l0,0
		c0.49-0.45,0.52-1.21,0.07-1.7c-0.45-0.49-1.21-0.52-1.7-0.07c-0.03,0.03-0.05,0.06-0.08,0.09l-0.01-0.01
		C80,71.81,72.38,77.49,64.84,83.06c-7.6,5.5-15.35,10.97-23.18,16.03c-3.93,2.36-8.18,4.63-12.53,4.85
		c-2.15,0.1-4.18-0.6-5.58-2.13c-1.42-1.51-2.15-3.61-2.4-5.81c-0.46-4.44,0.59-9.08,1.8-13.53c1.3-4.44,3.15-8.73,5.4-12.81
		c4.5-8.16,10.42-15.54,17.19-21.99c6.77-6.46,14.45-11.99,22.83-16.15c2.11-1.01,4.23-2,6.43-2.8c2.2-0.82,4.39-1.6,6.69-1.92
		c4.56-0.66,9.44-0.51,13.65,1.46c2.06,0.99,3.89,2.64,4.62,4.84c0.78,2.19,0.44,4.61-0.19,6.84c-1.3,4.52-3.94,8.54-6.81,12.25
		c2.95-3.65,5.68-7.62,7.09-12.17c0.67-2.24,1.09-4.73,0.32-7.06c-0.73-2.35-2.65-4.14-4.78-5.22c-4.35-2.14-9.33-2.38-14.04-1.81
		c-2.39,0.29-4.69,1.05-6.91,1.83c-2.25,0.77-4.43,1.72-6.59,2.71c-8.58,4.08-16.42,9.64-23.36,16.1
		c-6.94,6.47-13.05,13.89-17.76,22.19c-2.35,4.15-4.31,8.54-5.71,13.13c-1.3,4.59-2.42,9.33-1.95,14.33
		c0.27,2.46,1.1,5.05,2.93,7.02c1.79,2.01,4.63,2.97,7.18,2.83c5.17-0.27,9.53-2.72,13.61-5.12c8.02-5.14,15.7-10.53,23.39-16.04
		c4.59-3.37,9.14-6.75,13.59-10.31c-0.4,0.68-0.8,1.36-1.19,2.05c-2.18,4.05-3.91,8.3-5.33,12.63c-0.73,2.32-1.43,4.64-2.12,6.95
		c-4.37,3.11-8.66,6.32-12.93,9.54c-3.72,2.71-6.88,6.02-9.98,9.32c-3.06,3.35-5.98,6.85-8.51,10.69c-1.24,1.93-2.43,3.93-3.22,6.2
		c-0.38,1.13-0.7,2.35-0.65,3.69c0.01,1.32,0.66,2.87,1.85,3.71c1.16,0.85,2.46,1.13,3.67,1.29c1.22,0.16,2.41,0.08,3.61-0.01
		c2.4-0.27,4.72-1.11,6.76-2.34c4.11-2.5,7.07-6.28,9.48-10.17c2.39-3.94,4.27-8.12,5.91-12.36c2.5-6.39,4.42-12.97,6.39-19.46
		c2.46-1.76,4.94-3.5,7.47-5.15c7.51-4.94,15.48-9.07,23.82-12.49c4.14-1.77,8.67-3.76,12.97-5.05c4.3-1.3,8.16-1.82,12.85-2.28
		c-4.48,0.44-9,0.82-13.38,2C112.89,74.54,108.71,76.28,104.51,77.93z M65.06,115c-1.6,4.17-3.42,8.25-5.69,12.03
		c-2.29,3.74-5.08,7.26-8.71,9.48c-1.81,1.1-3.82,1.83-5.9,2.08c-2.04,0.22-4.4,0.14-5.79-0.85c-1.37-0.92-1.21-3.1-0.51-5.07
		c0.69-2,1.77-3.93,2.94-5.79c2.39-3.72,5.22-7.21,8.19-10.54c3.02-3.29,6.09-6.58,9.64-9.22c3.72-2.88,7.44-5.76,11.22-8.54
		C68.8,104.12,67.14,109.63,65.06,115z"/>
	<g>
		<path class="st0" d="M275.41,123.21c-3.57,1.4-7.14,2.79-10.71,4.19c-0.92,0.36-1.84,0.72-2.79,0.98
			c-0.86,0.24-1.75,0.39-2.64,0.45c-0.2,0.01-0.43,0.01-0.57-0.13c-0.16-0.17-0.12-0.44-0.07-0.66c0.56-2.39,1.16-4.77,1.66-7.17
			c0.12-0.56-0.07-1.14-0.41-1.6c-0.05-0.07-0.1-0.13-0.17-0.19c-0.09-0.07-0.19-0.12-0.3-0.16c-1.12-0.4-2.47,0.39-3.41,0.92
			c-2.05,1.16-4.06,2.4-6.01,3.72c-0.98,0.66-1.94,1.34-2.89,2.04c-0.82,0.6-1.68,1.42-2.6,1.85c-0.1,0.05-0.2,0.05-0.3,0.05
			c0-0.25,0.2-0.5,0.3-0.7c0.89-1.74,1.62-3.87,2.85-5.39c0.05-0.1,0.2-0.2,0-0.4c-0.35-0.5-0.8-0.8-1.35-1.1
			c-1.07-0.59-1.54,2.03-1.77,2.58c-0.03,0.08-0.07,0.16-0.13,0.22c-0.06,0.05-0.13,0.08-0.21,0.11c-1.95,0.78-3.84,1.69-5.76,2.55
			c-2.33,1.04-4.63,2.16-6.95,3.23c-2.19,1.01-4.38,1.36-6.78,1.49c-0.29,0.01-0.59,0.02-0.84-0.11c-1.31-0.67,1.51-3.73,1.95-4.37
			c0.3-0.3,0.67-0.19,1.05-0.14c0.52,0.06,1.05,0.09,1.57,0.08c1.03-0.02,2.06-0.19,3.04-0.48c1.6-0.48,3.28-1.37,4.55-2.46
			c0.61-0.52,1.38-1.41,1.64-2.19c0.43-1.29-0.95-2.66-2.12-2.83c-0.7-0.1-1.41,0.04-2.09,0.23c-1.6,0.45-3.13,1.18-4.49,2.14
			c-0.41,0.29-0.84,0.64-1.36,0.65c-0.59,0.02-1.05-0.21-1.69,0c-0.84,0.27-1.56,0.81-2.26,1.35c-3.27,2.5-6.55,4.99-9.82,7.49
			c-1.83,1.4-3.73,2.82-5.96,3.38c-0.17,0.04-0.36,0.08-0.53,0.04c-0.34-0.09-0.54-0.47-0.53-0.82c0.01-0.35,0.17-0.68,0.33-0.99
			c4.81-9.35,10.91-18.04,18.12-25.7c0.85-0.91,1.79-1.97,1.65-3.21c-0.04-0.35-0.19-0.72-0.49-0.91c-0.62-0.39-1.4,0.15-1.91,0.68
			c-5.43,5.56-8.92,12.92-14.98,17.79l-1.44-0.84c-0.35-0.35-0.8-0.55-1.2-0.85c-1.7-0.8-3.28-0.7-4.85,0.28
			c-1.4,0.88-2.59,2.07-3.67,3.31c-0.16,0.19-0.32,0.39-0.52,0.62c-0.18,0.13-0.36,0.26-0.55,0.4c-4.29,3.12-8.51,6.34-13.15,8.93
			c-1.3,0.8-2.85,1.4-4.44,1.8c-0.84,0.21-3.23,0.34-3.6-0.71c-0.17-0.48-0.04-1,0.11-1.49c0.69-2.24,1.9-4.31,3.49-6.03
			c1.73-1.86,4-2.78,6.1-4.13c1.84-1.19,3.63-2.47,5.36-3.83c2.55-2.01,4.97-4.21,7.21-6.56c2.35-2.46,4.12-5.29,5.92-8.17
			c0.31-0.49,0.63-1.05,0.54-1.62c-0.11-0.69-0.81-1.16-1.49-1.31c-2.58-0.59-5.53,1.74-7.5,3.14c-2.26,1.6-4.34,3.44-6.27,5.43
			c-3.88,3.99-7.13,8.54-10.17,13.19l-2.75,1.45c-2.78,1.15-5.81,1.71-8.82,1.66c1.34-2.08,0.93-5.11-0.91-6.75
			c0.37,0.09,0.41-0.44,0.3-0.66c-0.2-0.4-0.95-0.31-1.3-0.33c-1.24-0.07-2.49,0.01-3.71,0.23c-1.42,0.26-2.97,0.87-3.52,2.2
			c-0.23,0.55-0.26,1.16-0.45,1.72c-0.43,1.27-1.61,2.13-2.38,3.19c-0.89,1.22-1.57,2.6-1.99,4.06c-0.36,1.23-0.5,2.65,0.22,3.71
			c0.66,0.99,1.95,1.42,3.14,1.34c3.22-0.23,6.41-3.16,8.38-5.49c0.46-0.55,0.94-1.15,1.63-1.36c0.39-0.12,0.82-0.1,1.23-0.09
			c2.2,0.06,5.51-0.49,7.61-1.15c0.68-0.22,1.15-0.47,1.53-0.8c-0.86,1.4-1.86,2.81-2.5,4.31c-0.49,1.15-0.69,2.47-0.29,3.66
			c0.58,1.72,2.36,2.86,4.17,3.05c1.81,0.2,3.62-0.4,5.23-1.26c2.2-1.18,4.21-2.72,6.24-4.14c0.99-0.7,1.98-1.41,2.97-2.11
			c0.46-0.33,0.92-0.66,1.38-1c-0.34,0.68-0.64,1.37-0.86,2.1c-0.47,1.53-0.49,3.47,0.8,4.42c0.91,0.68,2.22,0.61,3.25,0.12
			c1.03-0.49,1.84-1.33,2.63-2.15c3.04-3.16,6.07-6.32,9.11-9.48c-1.23,2.82-3.29,5.26-4.12,8.22c-0.26,0.91-0.38,1.9-0.1,2.8
			c0.2,0.63,0.6,1.21,1.15,1.58c1.48,1.01,3.5,0.36,5.08-0.49c4.26-2.29,7.76-5.78,11.63-8.66c-0.58,0.85-1.17,1.85-1.32,2.84
			c-0.06,0.43-0.04,0.87,0.04,1.3c0.12,0.6,0.35,1.19,0.75,1.66c1.27,1.51,3.28,1.65,5.02,1.12c2.85-0.87,5.43-2.15,8.18-3.28
			c0.48-0.28,1-0.41,1.51-0.63c0.5-0.21,0.98-0.48,1.47-0.73c1.22-0.63,2.52-1.11,3.79-1.63c-0.45,0.66-0.8,1.47-1.18,2.2
			c-0.35,0.67-0.7,1.36-0.79,2.11c-0.13,1.05,0.52,2.69,1.7,1.62c1.35-1.22,2.54-2.59,3.91-3.79c1.47-1.29,3.14-2.38,4.73-3.52
			c2.18-1.56,4.66-3.09,7.35-3.51c0.23,1.5-0.67,2.73-1.01,4.13c-0.27,1.1-0.5,2.3-0.23,3.42c0.25,1.09,1.19,2.09,2.28,2.38
			c0.72,0.2,1.49,0.06,2.21-0.13c1.56-0.42,3.02-1.13,4.53-1.69c2.19-0.8,4.37-1.66,6.43-2.77c2.14-1.15,3.96-2.66,5.84-4.19
			C277.33,122.45,276.37,122.83,275.41,123.21z M226.69,123.92l1.35-1.3c1-0.75,2-1.6,3.24-2.2c0.95-0.6,4-1.6,4.15-1.45
			c0.2,0.2,0.4,0.3,0.25,0.55c0,0.25,0,0.55-0.15,0.7c-0.25,0.6-0.7,1.2-1.25,1.5c-1.05,0.8-2.15,1.4-3.5,1.8
			c-0.65,0.3-3.59,0.8-3.79,0.9c-0.15,0-0.45,0.15-0.6,0C226.34,124.27,226.64,123.97,226.69,123.92z M180.51,122.06
			c0.16-0.26,0.32-0.52,0.49-0.77c0.23-0.36,0.47-0.71,0.72-1.06c0.69-0.96,1.39-1.91,2.11-2.85c1.77-2.34,3.69-4.56,5.51-6.86
			c1.78-2.04,3.78-4.19,6.02-5.75c0.33-0.23,0.65-0.45,0.98-0.68c1.56-1.06,3.15-2.08,4.73-3.12c0.14-0.09,0.3-0.19,0.47-0.19
			c0.3,0,0.52,0.33,0.51,0.64c-0.01,0.3-0.18,0.58-0.34,0.83c-0.49,0.74-0.76,1.6-1.29,2.33c-0.67,0.92-1.37,1.82-2.11,2.69
			c-2.24,2.65-4.85,5-7.35,7.39c-2.08,1.99-4.29,3.84-6.61,5.53c-0.91,0.66-1.83,1.3-2.77,1.91c-0.44,0.29-0.89,0.57-1.38,0.74
			C180.19,122.85,180.46,122.15,180.51,122.06z M163.31,126.51c-0.7,0.89-1.7,1.68-2.6,2.34c-1.09,0.79-2.28,1.45-3.54,1.91
			c-0.63,0.23-1.95,0.75-2.26-0.2c-0.12-0.36-0.02-0.75,0.09-1.11c0.43-1.42,1.1-2.76,1.81-4.07c0.32-0.59,0.65-1.18,0.99-1.77
			c0.16-0.28,0.35-0.58,0.64-0.71c0.38-0.18,0.62,0.06,0.85,0.33c0.33,0.38,0.7,0.74,1.1,1.04c0.45,0.35,0.95,0.64,1.47,0.87
			c0.39,0.17,0.79,0.29,1.2,0.4c0.18,0.05,0.38,0.15,0.44,0.33c0.03,0.09,0.03,0.19,0.01,0.28
			C163.46,126.29,163.39,126.41,163.31,126.51z M165.66,123.55c-0.1,0.18-0.2,0.37-0.38,0.47c-0.23,0.13-0.51,0.1-0.77,0.05
			c-1.72-0.27-3.59-0.63-4.69-1.97c-0.07-0.08-0.13-0.17-0.13-0.28c0-0.13,0.1-0.23,0.19-0.31c0.58-0.55,4.52-4.28,5.29-3.7
			c0.99,0.75,1.54,1.79,1.43,3.08C166.5,121.83,166.1,122.71,165.66,123.55z M205.9,122.36c-0.35,0.35-3.85,3.9-5.25,5.29
			c-0.95,0.8-1.85,1.65-2.7,2.35l-2.05,1.35c-0.1,0.05-0.2,0.05-0.35,0.05c-0.05-0.05-0.15-0.25-0.05-0.4c0.3-0.9,0.55-1.89,1-2.7
			c0.8-1.3,3.64-5.14,3.94-5.29c0.6-0.6,1.3-1.25,2.1-1.75c0.95-0.7,4.64-1.1,4.64-1.1c0.2,0,0.25,0.15,0.2,0.4
			C206.85,121.16,206.4,121.71,205.9,122.36z"/>
	</g>
	<path class="st1" d="M141.37,68.42c-0.5,0.29-0.91,0.72-1.37,1.05c-0.47,0.34-0.97,0.65-1.43,1c-0.79,0.6-1.6,1.18-2.39,1.78
		c-0.61,0.5-1.12,1.07-1.71,1.59c-0.56,0.5-1.08,1.04-1.55,1.62c-0.93,1.15-1.67,2.45-2.18,3.84c-0.06,0.15-0.11,0.31-0.1,0.48
		c0.02,0.47,0.54,0.78,1.01,0.74c0.87-0.06,1.61-0.79,2.28-1.28c0.78-0.57,1.44-1.45,2.17-2.23c2.02-2.12,3.54-4.27,4.75-6.88
		c0.25-0.53,0.56-1.05,0.71-1.63c0.01-0.04,0.02-0.08-0.01-0.12C141.5,68.37,141.43,68.39,141.37,68.42z"/>
	<path class="st1" d="M218.72,69.33c-0.03-0.01-0.05,0-0.08,0.01c-0.8,0.27-1.4,0.86-2.08,1.34c-0.72,0.51-1.44,1.01-2.17,1.5
		c-1.1,0.75-2.31,1.39-3.21,2.4c-0.05,0.06-0.1,0.12-0.13,0.19c-0.08,0.2,0.08,0.31,0.25,0.37c1.52,0.56,3.47,0.39,4.83-0.53
		c0.45-0.31,0.85-0.68,1.21-1.08c0.06-0.06,0.11-0.12,0.16-0.18c0.54-0.62,1.02-1.33,1.23-2.13c0.14-0.53,0.12-1.22,0.05-1.76
		C218.78,69.4,218.76,69.34,218.72,69.33z"/>
	<path class="st1" d="M218.72,69.33c-0.03-0.01-0.05,0-0.08,0.01c-0.8,0.27-1.4,0.86-2.08,1.34c-0.72,0.51-1.44,1.01-2.17,1.5
		c-1.1,0.75-2.31,1.39-3.21,2.4c-0.05,0.06-0.1,0.12-0.13,0.19c-0.08,0.2,0.08,0.31,0.25,0.37c1.52,0.56,3.47,0.39,4.83-0.53
		c0.45-0.31,0.85-0.68,1.21-1.08c0.06-0.06,0.11-0.12,0.16-0.18c0.54-0.62,1.02-1.33,1.23-2.13c0.14-0.53,0.12-1.22,0.05-1.76
		C218.78,69.4,218.76,69.34,218.72,69.33z"/>
	<path class="st1" d="M141.37,68.42c-0.5,0.29-0.91,0.72-1.37,1.05c-0.47,0.34-0.97,0.65-1.43,1c-0.79,0.6-1.6,1.18-2.39,1.78
		c-0.61,0.5-1.12,1.07-1.71,1.59c-0.56,0.5-1.08,1.04-1.55,1.62c-0.93,1.15-1.67,2.45-2.18,3.84c-0.06,0.15-0.11,0.31-0.1,0.48
		c0.02,0.47,0.54,0.78,1.01,0.74c0.87-0.06,1.61-0.79,2.28-1.28c0.78-0.57,1.44-1.45,2.17-2.23c2.02-2.12,3.54-4.27,4.75-6.88
		c0.25-0.53,0.56-1.05,0.71-1.63c0.01-0.04,0.02-0.08-0.01-0.12C141.5,68.37,141.43,68.39,141.37,68.42z"/>
	<path class="st1" d="M141.37,68.42c-0.5,0.29-0.91,0.72-1.37,1.05c-0.47,0.34-0.97,0.65-1.43,1c-0.79,0.6-1.6,1.18-2.39,1.78
		c-0.61,0.5-1.12,1.07-1.71,1.59c-0.56,0.5-1.08,1.04-1.55,1.62c-0.93,1.15-1.67,2.45-2.18,3.84c-0.06,0.15-0.11,0.31-0.1,0.48
		c0.02,0.47,0.54,0.78,1.01,0.74c0.87-0.06,1.61-0.79,2.28-1.28c0.78-0.57,1.44-1.45,2.17-2.23c2.02-2.12,3.54-4.27,4.75-6.88
		c0.25-0.53,0.56-1.05,0.71-1.63c0.01-0.04,0.02-0.08-0.01-0.12C141.5,68.37,141.43,68.39,141.37,68.42z"/>
	<path class="st1" d="M218.72,69.33c-0.03-0.01-0.05,0-0.08,0.01c-0.8,0.27-1.4,0.86-2.08,1.34c-0.72,0.51-1.44,1.01-2.17,1.5
		c-1.1,0.75-2.31,1.39-3.21,2.4c-0.05,0.06-0.1,0.12-0.13,0.19c-0.08,0.2,0.08,0.31,0.25,0.37c1.52,0.56,3.47,0.39,4.83-0.53
		c0.45-0.31,0.85-0.68,1.21-1.08c0.06-0.06,0.11-0.12,0.16-0.18c0.54-0.62,1.02-1.33,1.23-2.13c0.14-0.53,0.12-1.22,0.05-1.76
		C218.78,69.4,218.76,69.34,218.72,69.33z"/>
	<path class="st1" d="M177.26,62.75c-0.69-0.41-1.24-1.01-1.79-1.58c-0.52-0.54-0.8,0.21-1.04,0.63c-0.32,0.55-0.59,1.12-0.87,1.68
		c-0.39,0.81-0.79,1.62-1.18,2.43c-0.31,0.64-0.55,1.31-0.83,1.96c-0.05,0.11-0.09,0.22-0.08,0.33c0.02,0.14,0.12,0.25,0.24,0.32
		c0.12,0.06,0.26,0.08,0.4,0.1c1.91,0.19,3.87-1.33,5.28-2.44c0.39-0.31,0.75-0.67,1.11-1.03c0.34-0.33,0.69-0.66,1.07-0.94
		c0.09-0.07,0.18-0.17,0.16-0.28c-0.02-0.11-0.12-0.17-0.21-0.23C178.82,63.28,177.97,63.17,177.26,62.75z"/>
	<g>
		<path class="st2" d="M232.51,61.48c-0.04-0.04-0.08-0.07-0.12-0.11c-0.1-0.09-0.2-0.17-0.32-0.24c-0.64-0.35-1.69,0.21-2.3,0.42
			c-0.86,0.3-1.71,0.64-2.54,1c-2.19,0.95-4.21,2.19-6.31,3.32c-0.41,0.22-0.8,0.48-1.22,0.69c-0.27,0.14-0.41,0.25-0.66,0.05
			c-0.23-0.18-0.41-0.65-0.56-0.9c-0.38-0.61-0.75-1.23-1.11-1.85c-0.54-0.9-1.52-2.31-0.58-3.27c0.66-0.67,1.65-0.91,2.54-1.13
			c0.09-0.02,0.18-0.05,0.27-0.04c0.28,0.02,0.5,0.29,0.76,0.39c0.34,0.14,0.74,0.15,1.09,0.02c0.2-0.08,0.41-0.24,0.42-0.45
			c0-0.14-0.08-0.26-0.17-0.37c-1.01-1.28-2.74-1.66-4.29-1.38c-0.78,0.14-1.53,0.44-2.17,0.9c-0.32,0.23-0.6,0.36-0.97,0.5
			c-0.47,0.18-0.87,0.45-1.32,0.65l-0.61,0.37c-1.55,1.12-2.95,1.96-4.49,2.9c-1.56,0.95-2.97,2.26-4.66,2.98
			c-0.59,0.25-1.25,0.39-1.88,0.29c-0.07-0.01-0.14-0.03-0.18-0.08c-0.06-0.08-0.02-0.2,0.02-0.29c0.74-1.68,1.53-3.33,2.59-4.83
			c0.32-0.45,1.04-1.53,0.41-2.01c-0.15-0.11-0.33-0.17-0.5-0.26c-0.12-0.06-0.22-0.14-0.35-0.18c-0.58-0.18-1.21,0.43-1.63,0.74
			c-1.72,1.25-3.44,2.49-5.17,3.74c-0.92,0.6-1.81,1.25-2.69,1.91c-0.73,0.55-1.42,1.14-2.24,1.56c-0.07,0.03-0.14,0.07-0.22,0.07
			c-0.08,0-0.16-0.04-0.18-0.11c-0.02-0.06,0.01-0.13,0.04-0.19c1.17-2.4,2.63-4.69,3.97-7c0.04-0.07,0.08-0.14,0.08-0.21
			c0.01-0.13-0.07-0.25-0.15-0.34c-0.14-0.16-0.3-0.31-0.5-0.38c-0.59-0.2-0.9,0.47-1.2,0.84c-0.34,0.41-0.71,0.8-1.16,1.09
			c-0.6,0.4-1.3,0.61-2,0.8c-1.56,0.42-3.15,0.73-4.74,1.02c-0.49,0.09-0.99,0.18-1.49,0.18c-0.11,0-1.12-0.15-1.13-0.12
			c0.28-0.56,0.42-1.12,0.61-1.64c0.29-1.1,0.25-2.25-0.41-3.21c-0.3-0.43-0.68-0.8-0.95-1.25c-0.04-0.06-0.07-0.14-0.03-0.2
			c0.03-0.03,0.07-0.04,0.11-0.06c0.58-0.26-0.12-0.61-0.35-0.7c-0.45-0.18-0.88-0.35-1.36-0.18c-0.91,0.32-1.98,0.06-2.95,0.29
			c-1.29,0.3-3,0.99-3.41,2.39c-0.12,0.42-0.13,0.87-0.27,1.28c-0.16,0.49-0.48,0.91-0.79,1.31c-0.31,0.4-0.63,0.81-1.03,1.14
			c-0.42,0.34-0.85,0.41-1.33,0.61c-1.14,0.48-2.25,1.01-3.37,1.52c-3.23,1.46-6.41,3.34-9.9,4.08c-0.85,0.18-1.73,0.3-2.59,0.13
			c-0.22-0.04-0.44-0.11-0.59-0.27c-0.24-0.26-0.2-0.68-0.05-1c0.5-1.11,1.33-2.02,2.02-3.01c0.19-0.19,0.28-0.19,0.42-0.19
			c0.71,0,1.42,0.14,2.13,0.15c0.7,0,1.42-0.11,2.1-0.27c1.4-0.33,2.73-0.94,3.92-1.75c0.87-0.59,1.82-1.31,2.3-2.28
			c0.51-1,0.08-2.33-0.9-2.9c-0.38-0.22-0.82-0.29-1.26-0.32c-1.63-0.08-2.89,0.59-4.27,1.33c-1.58,0.84-2.93,1.91-4.24,3.12
			c-0.22-0.03-0.46,0-0.73,0.16c-0.93,0.05-1.73,0.37-2.57,0.65c-2.01,0.67-3.85,1.82-5.89,2.39c-0.18,0.05-0.36,0.1-0.54,0.07
			c-0.18-0.03-0.36-0.17-0.37-0.35c-0.01-0.08,0.01-0.15,0.03-0.22c0.4-1.41,1.21-2.62,1.91-3.89c0.7-1.31,1.17-2.94,1.73-4.35
			c0-0.09-0.05-0.23-0.05-0.33c-0.37-0.65-0.94-0.79-1.35-0.19c-0.19,0.1-0.33,0.28-0.42,0.33c-0.56,0.42-1.12,0.94-1.68,1.5
			c-0.19,0.19-0.33,0.19-0.42,0.05c-0.76-0.75-2.01-1.14-3.02-0.77c-1.53,0.57-3,1.29-4.4,2.13c-1.2,0.72-2.4,1.44-3.59,2.17
			c-1.16,0.71-2.31,1.43-3.45,2.16c-0.76,0.49-1.49,0.94-2.34,1.27c0.33-0.75,0.67-1.52,1.21-2.14c0.19-0.23,0.43-0.49,0.36-0.79
			c-0.03-0.12-0.11-0.22-0.19-0.32c-0.97-1.17-1.89-1.7-3.37-1.06c-2.92,1.26-5.79,2.74-8.3,4.71c-0.29,0.23-0.58,0.46-0.92,0.72
			c-0.07,0.02-0.14-0.05-0.15-0.13c0-0.07,0.04-0.14,0.07-0.21c0.59-0.97,1.11-1.98,1.63-2.99c0.43-0.84,1.34-1.74,0.25-2.36
			c-0.57-0.32-1.52-0.57-1.82,0.26c-0.23,0.73-0.41,1.51-1.24,1.62c-0.42,0.05-0.82,0.21-1.22,0.36c-1.39,0.51-2.81,0.9-4.27,1.17
			c-0.65,0.12-1.3,0.29-1.96,0.38c-0.15,0.02-1.96,0-1.92-0.09c0.36-0.68,0.64-1.66,0.74-2.42c0.11-0.81-0.01-1.71-0.51-2.39
			c-0.37-0.5-0.74-1-1.11-1.51c0.11-0.03,0.23-0.06,0.31-0.14c0.3-0.28-0.2-0.51-0.4-0.61c-0.22-0.11-0.44-0.22-0.69-0.25
			c-0.26-0.03-0.52,0.03-0.78,0.08c-0.83,0.16-1.66,0-2.48,0.14c-0.93,0.15-1.83,0.5-2.61,1.02c-0.57,0.38-1.11,0.9-1.26,1.57
			c-0.07,0.31-0.05,0.63-0.11,0.94c-0.14,0.7-0.67,1.21-1.13,1.71c-0.53,0.56-0.98,1.2-1.43,1.83c-1.06,1.46-1.76,3.21-1.98,5.01
			c-0.19,1.62,1.28,3.22,2.91,3.22c1.07,0,2.05-0.28,3.04-0.8c1.59-0.83,3.04-1.93,4.32-3.19c0.63-0.62,1.16-1.31,1.74-1.96
			c0.54-0.59,1.09-0.55,1.83-0.55c0.73,0,1.47,0,2.2-0.06c0.71-0.06,1.42-0.13,2.11-0.31c1.3-0.35,2.66-0.76,3.85-1.42
			c0.21-0.12,0.42-0.24,0.61-0.37c-0.1,0.07-0.18,0.36-0.24,0.47c-0.09,0.18-0.19,0.37-0.28,0.55c-0.19,0.38-0.39,0.75-0.59,1.13
			c-0.39,0.73-0.79,1.45-1.2,2.16c-0.48,0.91-0.99,1.81-1.49,2.71c-0.38,0.69-1.01,1.47-1.19,2.23c-0.19,0.81,0.33,1.68,1.08,2.03
			c0.1,0.05,0.2,0.09,0.3,0.05c0.08-0.03,0.14-0.1,0.2-0.17c1.11-1.42,2.07-2.9,3.27-4.25c0.8-0.91,1.7-1.74,2.64-2.51
			c1.93-1.57,4.09-3.06,6.26-4.26c0.35-0.19,0.86-0.49,1.26-0.54c0.59-0.08,0.4,0.33,0.41,0.75c0.02,0.73,0.3,1.47,0.66,2.1
			c0.11,0.19,0.23,0.39,0.41,0.52c0.18,0.13,0.41,0.18,0.63,0.19c0.53,0.02,1.05-0.18,1.49-0.48c0.86-0.59,1.59-1.39,2.44-2.02
			c-0.86,0.64-1.23,1.95-1.08,2.98c0.09,0.63,0.42,1.24,0.97,1.56c0.97,0.58,2.21,0.12,3.2-0.43c2.17-1.22,4.08-2.86,5.9-4.55
			c0.9-0.83,1.83-1.58,2.77-2.36c0.51-0.43,1.02-0.85,1.52-1.3c0.23-0.2,1.1-1.28,1.36-1.28h0.1c0,0.05,0.05,0.14,0.05,0.19
			c0,0.28-0.37,0.77-0.49,1.02c-1.06,2.18-1.92,4.59-3.39,6.54c-1.6,2.12-3.67,3.11-5.9,4.39c-1.24,0.71-2.37,1.7-3.45,2.63
			c-1.15,1-2.23,2.07-3.19,3.26c-0.55,0.68-1.06,1.41-1.38,2.22c-0.48,1.23-0.35,2.61,0.21,3.8c0.49,1.03,1.42,1.71,2.56,1.15
			c0.95-0.47,1.67-0.93,2.45-1.66c0.88-0.82,1.69-1.71,2.45-2.65c1.53-1.88,2.84-3.94,4.06-6.03c0.87-1.48,1.65-2.99,2.48-4.49
			c0.62-1.11,1.35-1.69,2.45-2.25c0.35-0.18,0.7-0.36,1.05-0.54c0.66-0.33,1.32-0.64,2-0.93c0.81-0.36,1.57-0.82,2.4-1.14
			c0.39-0.15,0.79-0.26,1.19-0.35c0.61-0.14,1.23-0.23,1.86-0.37c-0.68,0.78-1.27,1.65-1.71,2.64l-0.33,0.61
			c-0.19,0.84-0.19,1.03,0,2.06c0.25,1.37,1.83,2.55,3.18,2.62c0.52,0.03,1.05-0.07,1.56-0.18c2.28-0.5,4.37-1.37,6.45-2.39
			c1.01-0.49,2.08-0.93,3.13-1.39c1.04-0.45,2.04-1.02,3.1-1.44c-0.12,0.05-0.42,1.15-0.47,1.3c-0.2,0.53-0.32,1.09-0.32,1.65
			c0.02,1.81,1.39,3.1,3.18,3.07c1.34-0.02,2.62-0.62,3.74-1.36c0.75-0.5,1.44-1.06,2.15-1.6c0.73-0.55,1.42-1.04,1.99-1.78
			c0.47-0.61,0.86-1.38,1.63-1.67c0.45-0.17,0.95-0.12,1.43-0.1c2.11,0.11,4.11-0.32,6.07-1.08c0.24-0.09,1.43-0.61,1.43-0.26
			c0,0.14-0.39,0.52-0.47,0.65c-0.16,0.24-0.31,0.5-0.44,0.76c-0.26,0.5-0.46,1.02-0.61,1.56c-0.19,0.68-0.29,1.41-0.06,2.08
			c0.85,2.42,3.58,0.44,4.8-0.44c1.9-1.38,3.79-2.91,5.53-4.46c0.07-0.06,0.13-0.12,0.22-0.15c0.08-0.03,0.19-0.01,0.24,0.06
			c0.05,0.06-0.18,0.5-0.22,0.59c-0.11,0.24-0.21,0.48-0.29,0.74c-0.2,0.63-0.4,1.36-0.32,2.02c0.1,0.85,0.78,2.05,1.63,2.34
			c0.28,0.1,0.59,0.1,0.89,0.09c1.19-0.07,2.35-0.49,3.39-1.06c1.64-0.9,3.09-2.13,4.63-3.17c1.11-0.75,2.28-1.4,3.34-2.21
			c0.23-0.17,0.45-0.35,0.66-0.53c0.21-0.18,0.41-0.44,0.63-0.58c-0.05,0.22,0.02,0.4,0.12,0.6c1,1.89,2.12,3.73,3.2,5.58
			c0.18,0.31,0.07,0.5-0.22,0.69c-0.22,0.22-0.6,0.38-0.87,0.55c-2.16,1.38-4.34,2.73-6.43,4.24c-0.59,0.43-1.17,0.97-1.39,1.69
			c-0.15,0.52-0.11,1.09,0.08,1.59c0.19,0.49,0.6,0.78,1.04,1.03c0.93,0.53,1.95,0.98,3.02,0.96c0.92-0.02,1.82-0.38,2.59-0.89
			c0.86-0.56,1.56-1.33,2.35-1.97c0.75-0.61,1.34-1.38,1.68-2.29c0.25-0.67,0.31-1.38,0.28-2.08c-0.03-0.53-0.33-1.47-0.07-1.96
			c0.11-0.2,0.31-0.32,0.5-0.43c1.86-1.24,3.9-2.2,5.78-3.41c1.04-0.67,2.14-1.25,3.28-1.74c0.57-0.24,1.15-0.47,1.74-0.66
			c0.23-0.08,1.37-0.24,1.31-0.62C232.62,61.59,232.57,61.53,232.51,61.48z M157.46,61.77l1.26-1.21c0.94-0.7,1.87-1.5,3.04-2.06
			c0.89-0.56,3.74-1.49,3.88-1.35c0.19,0.19,0.37,0.28,0.23,0.51c0,0.24,0,0.52-0.14,0.65c-0.23,0.56-0.65,1.12-1.17,1.4
			c-0.98,0.75-4.3,2.1-4.86,2.29c-0.37,0.09-2.38,0.37-2.52,0.23C157.13,62.1,157.41,61.82,157.46,61.77z M102.98,65.25
			c-1.35,1.22-2.85,2.29-4.58,3.13c-0.51,0.19-0.98,0.37-1.31,0.28h-0.75c-0.28-0.1-0.56-0.33-0.42-0.61
			c0.37-0.7,0.61-1.64,0.98-2.38c0.51-0.89,0.94-1.73,1.35-2.62c0.24-0.8,0.7-1.31,1.08-1.96c0.05-0.19,0.23-0.19,0.47,0.05
			c1.07,1.26,2.29,2.15,3.97,2.48c0.05,0.14,0.19,0.14,0.23,0.19c0.14,0,0.19,0.24,0.14,0.33
			C103.64,64.55,103.36,64.88,102.98,65.25z M106.58,58.94c-0.05,0.93-0.42,1.77-0.94,2.66c-0.14,0.28-0.46,0.42-0.93,0.37
			c-0.8-0.14-1.64-0.24-2.48-0.61c-0.51-0.19-1.21-0.37-1.59-0.84c-0.05-0.14-0.23-0.28-0.33-0.42c-0.23-0.19-0.23-0.38,0-0.56
			l1.03-0.93c0.61-0.47,1.17-0.98,1.82-1.35c0.56-0.47,1.12-0.8,1.82-1.17c0.05-0.05,0.19,0,0.28,0c0.19,0.14,0.33,0.24,0.37,0.33
			C106.35,57.03,106.77,57.91,106.58,58.94z M144.17,57.86c-0.08,0.18-0.25,0.31-0.41,0.43c-0.92,0.7-1.81,1.49-2.7,2.24
			c-0.83,0.7-1.7,1.34-2.57,1.98c-0.94,0.69-1.88,1.31-2.88,1.92c-0.71,0.43-1.46,0.89-2.29,0.87c0.06-0.26,0.14-0.54,0.3-0.77
			c0.19-0.32,0.44-0.6,0.69-0.87c1.11-1.18,2.21-2.12,3.32-3.01c0.53-0.43,1.06-0.86,1.6-1.27c0.77-0.58,1.6-1.07,2.42-1.57
			c0.42-0.25,0.84-0.5,1.25-0.77c0.32-0.21,1.43-1.14,1.38-0.19C144.25,57.17,144.29,57.58,144.17,57.86z M140.84,70.16
			c-1.21,2.6-2.73,4.75-4.75,6.88c-0.74,0.78-1.4,1.65-2.17,2.23c-0.68,0.5-1.41,1.22-2.28,1.28c-0.46,0.03-0.99-0.28-1.01-0.74
			c-0.01-0.16,0.05-0.32,0.1-0.48c0.51-1.39,1.25-2.69,2.18-3.84c0.47-0.58,0.99-1.13,1.55-1.62c0.58-0.52,1.1-1.09,1.71-1.59
			c0.79-0.6,1.6-1.18,2.39-1.78c0.46-0.35,0.96-0.67,1.43-1c0.47-0.33,0.88-0.77,1.37-1.05c0.05-0.03,0.13-0.06,0.17-0.01
			c0.02,0.03,0.02,0.08,0.01,0.12C141.4,69.11,141.09,69.62,140.84,70.16z M179.58,64.21c-0.38,0.28-0.73,0.6-1.07,0.94
			c-0.36,0.35-0.72,0.71-1.11,1.03c-1.41,1.12-3.36,2.63-5.28,2.44c-0.14-0.01-0.28-0.03-0.4-0.1c-0.12-0.06-0.23-0.18-0.24-0.32
			c-0.01-0.11,0.03-0.23,0.08-0.33c0.28-0.65,0.52-1.32,0.83-1.96c0.39-0.81,0.79-1.62,1.18-2.43c0.28-0.57,0.55-1.14,0.87-1.68
			c0.24-0.42,0.52-1.17,1.04-0.63c0.55,0.57,1.1,1.17,1.79,1.58c0.71,0.42,1.56,0.53,2.27,0.95c0.09,0.05,0.19,0.12,0.21,0.23
			C179.76,64.04,179.67,64.14,179.58,64.21z M181.22,61.8c-0.07,0.15-0.15,0.3-0.27,0.42c-0.2,0.2-0.51,0.21-0.78,0.19
			c-0.69-0.07-1.43-0.22-2.08-0.45c-0.59-0.21-1.28-0.39-1.77-0.8c-0.21-0.17-0.38-0.39-0.55-0.6c-0.06-0.07-0.11-0.14-0.14-0.23
			c-0.06-0.17,0.03-0.25,0.15-0.35c0.84-0.76,1.71-1.49,2.63-2.15c0.48-0.34,0.97-0.67,1.47-0.97c0.5-0.3,0.82-0.5,1.28-0.01
			c0.19,0.2,0.38,0.41,0.53,0.65c0.38,0.6,0.46,1.24,0.39,1.88C181.96,60.23,181.6,61.05,181.22,61.8z M218.73,71.2
			c-0.21,0.8-0.7,1.51-1.23,2.13c-0.05,0.06-0.11,0.12-0.16,0.18c-0.36,0.4-0.76,0.78-1.21,1.08c-1.35,0.92-3.31,1.09-4.83,0.53
			c-0.17-0.06-0.33-0.17-0.25-0.37c0.03-0.07,0.08-0.13,0.13-0.19c0.9-1.01,2.11-1.65,3.21-2.4c0.73-0.49,1.45-1,2.17-1.5
			c0.68-0.48,1.28-1.07,2.08-1.34c0.03-0.01,0.05-0.02,0.08-0.01c0.04,0.02,0.06,0.07,0.06,0.12
			C218.85,69.98,218.87,70.67,218.73,71.2z"/>
	</g>
	<g>
		<path class="st2" d="M214.26,152.88c0,0.28,0.11,0.41,0.4,0.41h0.52v0.28h-2.29v-0.28h0.51c0.29,0,0.4-0.15,0.4-0.41v-3.26h-1.18
			v-0.28h1.18v-0.39c0-0.69,0.13-1.22,0.36-1.56c0.21-0.3,0.52-0.45,0.93-0.45c0.6,0,1.3,0.32,1.3,1c0,0.15-0.13,0.26-0.28,0.26
			c-0.22,0-0.29-0.19-0.29-0.27v-0.19c0-0.26-0.22-0.54-0.73-0.54c-0.6,0-0.84,0.41-0.84,1.38v0.76h1.23v0.28h-1.23V152.88z"/>
		<path class="st2" d="M216.45,150.17c0-0.19-0.14-0.24-0.72-0.24v-0.28c0.33,0,0.73-0.12,1.18-0.33v0.88
			c0.16-0.23,0.67-0.88,1.42-0.88c0.31,0,0.69,0.06,0.69,0.51c0,0.17-0.13,0.27-0.31,0.27c-0.15,0-0.27-0.06-0.36-0.18
			c-0.09-0.12-0.21-0.16-0.37-0.16c-0.41,0-0.79,0.37-1.08,1.02v2.15c0,0.29,0.07,0.37,0.33,0.37h0.33v0.28h-1.83v-0.28
			c0.52,0,0.7,0,0.7-0.37V150.17z"/>
		<path class="st2" d="M221.4,153.76c-1.5,0-2.04-1.28-2.04-2.24c0-1.73,1.23-2.34,2.04-2.34c1.03,0,1.99,0.76,1.99,2.34
			C223.39,152.52,222.83,153.76,221.4,153.76z M222.47,149.96c-0.28-0.32-0.64-0.49-1.07-0.49c-0.44,0-0.81,0.17-1.12,0.5
			c-0.29,0.33-0.42,0.85-0.42,1.55c0,0.66,0.24,1.95,1.54,1.95c1.18,0,1.48-1.2,1.48-1.95
			C222.88,150.81,222.75,150.29,222.47,149.96z"/>
		<path class="st2" d="M224.62,150.17c0-0.24-0.27-0.25-0.69-0.25v-0.28c0.33,0,0.71-0.11,1.15-0.32v0.67
			c0.33-0.41,0.55-0.67,1.14-0.67c0.38,0,0.67,0.13,0.88,0.4c0.06,0.09,0.12,0.21,0.16,0.35c0.17-0.31,0.58-0.75,1.3-0.75
			c0.62,0,1.09,0.43,1.09,1.24v2.39c0,0.22,0.12,0.34,0.33,0.34h0.32v0.28h-1.75v-0.28h0.35c0.18,0,0.29-0.13,0.29-0.34v-2.39
			c0-0.6-0.3-0.96-0.75-0.96c-0.39,0-0.97,0.33-1.1,0.86v2.51c0,0.22,0.12,0.33,0.33,0.33h0.31v0.28h-1.77v-0.28h0.38
			c0.15,0,0.3-0.13,0.3-0.33v-2.36c0-0.49-0.17-1.01-0.78-1.01c-0.34,0-0.9,0.28-1.03,0.94v2.44c0,0.22,0.12,0.32,0.3,0.32h0.34
			v0.28h-1.78v-0.28h0.27c0.15,0,0.42-0.04,0.42-0.32V150.17z"/>
		<path class="st2" d="M238.31,153.15c-0.38,0-0.75,0.07-1.11,0.22c-0.41,0.18-0.85,0.26-1.29,0.26c-1.61,0-2.82-1.45-2.82-3.28
			c0-1.08,0.32-1.93,0.98-2.56c0.59-0.58,1.27-0.86,2.05-0.86c0.36,0,0.8,0.14,1.31,0.42l0.33-0.19h0.13l0.45,1.63h-0.24
			c-0.29-0.6-0.61-1.02-0.95-1.25c-0.34-0.22-0.68-0.33-1.03-0.33c-1.23,0-2.52,1.1-2.52,3.14c0,1.73,1.07,3,2.35,3
			c1.06,0,1.91-0.52,1.91-1.14v-0.75c0-0.31-0.24-0.47-0.54-0.47h-0.48v-0.28h2.31V151h-0.45c-0.3,0-0.39,0.25-0.39,0.47V153.15z"/>
		<path class="st2" d="M243.16,152.99c0,0.22,0.22,0.3,0.4,0.3h0.4v0.28h-1.26v-0.69c-0.47,0.49-0.92,0.76-1.47,0.76
			c-0.6,0-1.07-0.35-1.07-1.21v-2.23c0-0.08-0.03-0.15-0.08-0.18c-0.05-0.05-0.25-0.06-0.61-0.06v-0.28c0.33,0,0.71-0.13,1.15-0.36
			v2.82c0,0.43,0.05,1.16,0.76,1.16c0.32,0,0.67-0.17,1.06-0.51l0.25-0.29v-2.3c0-0.13-0.06-0.2-0.18-0.23l-0.51-0.02v-0.28
			c0.32,0,0.71-0.13,1.15-0.36V152.99z"/>
		<path class="st2" d="M245.57,152.46c0,0.54,0.05,0.89,0.55,0.89c0.23,0,0.54-0.2,0.9-0.6l0.2,0.19c-0.44,0.47-0.68,0.69-1.22,0.69
			c-0.73,0-0.88-0.62-0.88-1.17v-2.78h-0.82v-0.28c0.84,0,1.03-0.56,1.03-1.91h0.25v1.91h1.25v0.28h-1.25V152.46z"/>
		<path class="st2" d="M250.26,153.28c-0.4,0.31-0.86,0.47-1.41,0.47c-0.41,0-1.11-0.21-1.11-1.08c0-0.36,0.15-0.66,0.46-0.9
			c0.41-0.31,1.18-0.54,2.31-0.69v-0.59c0-0.6-0.57-0.99-1.09-0.99c-0.65,0-0.95,0.42-0.95,0.6v0.11c0.02,0.1,0.05,0.36-0.26,0.36
			c-0.22,0-0.28-0.17-0.28-0.28c0-0.56,0.62-1.07,1.49-1.07c0.95,0,1.55,0.65,1.55,1.27v2.09c0,0.33,0,0.9,0.19,0.9
			c0.08,0,0.19-0.17,0.31-0.49l0.25,0.13c-0.18,0.58-0.42,0.64-0.65,0.64c-0.48,0-0.51-0.44-0.54-0.75L250.26,153.28z
			 M250.51,151.36c-0.9,0.15-1.54,0.36-1.92,0.62c-0.27,0.17-0.4,0.41-0.4,0.69c0,0.49,0.43,0.8,0.83,0.8c0.57,0,1.4-0.4,1.49-1.06
			V151.36z"/>
		<path class="st2" d="M256.03,152.58c-0.53,0.81-1.03,1.17-1.76,1.17c-1.22,0-2.02-0.95-2.02-2.31c0-1.47,1.1-2.22,2.17-2.22
			c0.67,0,1.45,0.47,1.45,1.21c0,0.12-0.07,0.26-0.3,0.26c-0.14,0-0.29-0.08-0.29-0.27c0.01-0.04,0.03-0.22,0.04-0.27
			c0-0.22-0.3-0.66-0.9-0.66c-0.76,0-1.66,0.64-1.66,1.8c0,1.86,1.2,2.13,1.63,2.13c0.58,0,0.95-0.34,1.41-1.01L256.03,152.58z"/>
		<path class="st2" d="M257.19,147.84c0-0.23-0.27-0.26-0.68-0.25v-0.28c0.33,0,0.7-0.13,1.13-0.37v3.17
			c0.09-0.13,0.19-0.24,0.33-0.34c0.34-0.31,0.76-0.45,1.28-0.45c0.76,0,1.15,0.43,1.15,1.11v2.54l0.04,0.25
			c0.02,0.05,0.08,0.08,0.17,0.08h0.58v0.28h-2.02v-0.28h0.44c0.29,0,0.32-0.16,0.32-0.33v-2.54c0-0.34-0.21-0.83-0.86-0.83
			c-0.49,0-1.28,0.36-1.43,1.08v2.29c0,0.13,0,0.33,0.24,0.33h0.42v0.28h-1.81v-0.28h0.43c0.15,0,0.25-0.07,0.25-0.33V147.84z"/>
	</g>
</g>
</svg>
